#!OML:ASF G:\JayActor3\Patient Classification 1\Patient 1\Session 6\male.ASF
:FULLY-SPECIFIED
:DEGREES
948
root 23.4475 14.1837 -13.8016 13.7361 -58.7293 6.10457
lowerback 38.1976 -0.113445 6.15347
upperback 19.9433 -0.0156095 2.44696
thorax 3.36102 -0.295203 -0.634564
lowerneck 4.8413 -1.59663 1.40537
upperneck -21.8329 -2.00293 1.61495
head -7.48711 -1.39014 0.470374
rclavicle -1.59028e-015 -3.00165e-014
rhumerus 6.81256 5.80073 -71.9394
rradius 73.7294
rwrist -5.37952
rhand -29.1647 -10.5209
rfingers 7.12502
rthumb -2.51076 -40.4858
lclavicle -1.59028e-015 -3.00165e-014
lhumerus -19.0486 -8.37784 70.6855
lradius 69.0193
lwrist 28.498
lhand -15.5022 10.5277
lfingers 7.12502
lthumb 10.6804 40.2362
rfemur -67.2841 -7.30606 21.5215
rtibia 78.1741
rfoot -29.3406 -19.0258
rtoes -3.95892
lfemur -60.1806 10.8271 -27.1493
ltibia 75.1837
lfoot -24.6365 5.7772
ltoes -12.4731
949
root 23.3979 14.1942 -13.8126 13.5623 -58.5383 6.30376
lowerback 38.151 -0.188494 6.1955
upperback 19.8821 -0.0767071 2.4721
thorax 3.30554 -0.320521 -0.611758
lowerneck 4.78488 -1.60699 1.40081
upperneck -21.8234 -2.02047 1.61393
head -7.4738 -1.39837 0.471469
rclavicle -3.18055e-015 -2.98177e-015
rhumerus 6.71769 5.81726 -71.9094
rradius 73.5819
rwrist -5.35094
rhand -29.112 -10.5376
rfingers 7.12502
rthumb -2.45987 -40.5032
lclavicle -3.18055e-015 -2.98177e-015
lhumerus -19.0789 -8.42135 70.6785
lradius 69.069
lwrist 28.414
lhand -15.3058 10.5057
lfingers 7.12502
lthumb 10.8698 40.2044
rfemur -67.032 -7.27951 21.4853
rtibia 78.1416
rfoot -29.5717 -19.1483
rtoes -3.86024
lfemur -60.4396 10.9277 -27.1409
ltibia 75.6598
lfoot -23.9751 5.58305
ltoes -12.7488
950
root 23.3488 14.2053 -13.823 13.4025 -58.3616 6.4783
lowerback 38.111 -0.257573 6.23806
upperback 19.8224 -0.131214 2.48945
thorax 3.25012 -0.342261 -0.599288
lowerneck 4.73424 -1.60978 1.40149
upperneck -21.8298 -2.02751 1.60802
head -7.46689 -1.40177 0.469507
rclavicle 2.8625e-014 -1.76918e-014
rhumerus 6.60905 5.82644 -71.8915
rradius 73.4561
rwrist -5.36735
rhand -29.0666 -10.5709
rfingers 7.12502
rthumb -2.41599 -40.537
lclavicle 2.8625e-014 -1.76918e-014
lhumerus -19.1109 -8.4523 70.6499
lradius 69.1591
lwrist 28.349
lhand -15.0853 10.4864
lfingers 7.12502
lthumb 11.0825 40.1738
rfemur -66.7671 -7.25811 21.467
rtibia 78.0933
rfoot -29.7733 -19.2769
rtoes -3.82781
lfemur -60.7209 11.0851 -27.1531
ltibia 76.1566
lfoot -23.2953 5.36614
ltoes -12.6611
951
root 23.3001 14.2177 -13.8327 13.2486 -58.2014 6.637
lowerback 38.0804 -0.318392 6.2759
upperback 19.7629 -0.177522 2.50048
thorax 3.19213 -0.360239 -0.593309
lowerneck 4.69296 -1.60363 1.40469
upperneck -21.8518 -2.02193 1.59893
head -7.46685 -1.39916 0.465367
rclavicle -4.13472e-014 6.22196e-014
rhumerus 6.48461 5.82768 -71.8778
rradius 73.3505
rwrist -5.41748
rhand -29.0224 -10.6174
rfingers 7.12502
rthumb -2.37332 -40.5839
lclavicle -4.13472e-014 6.22196e-014
lhumerus -19.1443 -8.47186 70.6048
lradius 69.2867
lwrist 28.3157
lhand -14.8604 10.4794
lfingers 7.12502
lthumb 11.2994 40.155
rfemur -66.4856 -7.24424 21.4601
rtibia 78.0265
rfoot -29.9507 -19.3978
rtoes -3.84512
lfemur -61.0095 11.289 -27.1924
ltibia 76.6521
lfoot -22.6087 5.1682
ltoes -12.3087
952
root 23.2522 14.2309 -13.8414 13.1055 -58.054 6.77745
lowerback 38.0555 -0.37339 6.31254
upperback 19.7021 -0.217296 2.50782
thorax 3.13117 -0.375127 -0.592409
lowerneck 4.66547 -1.58791 1.40469
upperneck -21.8859 -2.0024 1.59112
head -7.47329 -1.38972 0.46138
rclavicle -6.52014e-014 -1.96797e-014
rhumerus 6.34343 5.82646 -71.8625
rradius 73.2597
rwrist -5.49184
rhand -28.9885 -10.6616
rfingers 7.12502
rthumb -2.34065 -40.6285
lclavicle -6.52014e-014 -1.96797e-014
lhumerus -19.181 -8.48192 70.5496
lradius 69.4461
lwrist 28.3227
lhand -14.6499 10.4801
lfingers 7.12502
lthumb 11.5024 40.1445
rfemur -66.1921 -7.23288 21.4604
rtibia 77.9439
rfoot -30.1041 -19.5117
rtoes -3.90431
lfemur -61.3005 11.5242 -27.2568
ltibia 77.1334
lfoot -21.932 5.00697
ltoes -11.7434
953
root 23.2051 14.2447 -13.8489 12.9742 -57.9141 6.90167
lowerback 38.0302 -0.423757 6.34784
upperback 19.6411 -0.252279 2.51431
thorax 3.07025 -0.387861 -0.593123
lowerneck 4.64761 -1.56434 1.40457
upperneck -21.9235 -1.97221 1.57891
head -7.48261 -1.37461 0.455268
rclavicle -1.43125e-014 1.39149e-014
rhumerus 6.19103 5.8254 -71.8391
rradius 73.1785
rwrist -5.57741
rhand -28.9706 -10.6976
rfingers 7.12502
rthumb -2.3233 -40.6647
lclavicle -1.43125e-014 1.39149e-014
lhumerus -19.2143 -8.48531 70.4873
lradius 69.6268
lwrist 28.3751
lhand -14.4716 10.4977
lfingers 7.12502
lthumb 11.6744 40.1524
rfemur -65.8912 -7.21774 21.4615
rtibia 77.8497
rfoot -30.2467 -19.6186
rtoes -3.98092
lfemur -61.5887 11.7733 -27.345
ltibia 77.5887
lfoot -21.2834 4.88452
ltoes -10.9835
954
root 23.1588 14.2589 -13.8552 12.8609 -57.7774 7.00617
lowerback 38.0044 -0.471868 6.38462
upperback 19.5782 -0.284047 2.52122
thorax 3.00752 -0.399068 -0.595096
lowerneck 4.63523 -1.53658 1.40272
upperneck -21.9553 -1.93681 1.56229
head -7.49105 -1.35619 0.447569
rclavicle 3.18055e-015 -5.04913e-014
rhumerus 6.0295 5.82449 -71.8074
rradius 73.105
rwrist -5.66002
rhand -28.9697 -10.713
rfingers 7.12502
rthumb -2.3224 -40.6801
lclavicle 3.18055e-015 -5.04913e-014
lhumerus -19.2405 -8.47818 70.4224
lradius 69.815
lwrist 28.4677
lhand -14.34 10.5219
lfingers 7.12502
lthumb 11.8013 40.1694
rfemur -65.589 -7.21123 21.4712
rtibia 77.7494
rfoot -30.3888 -19.7043
rtoes -4.0507
lfemur -61.8784 12.025 -27.4562
ltibia 78.0102
lfoot -20.6845 4.8348
ltoes -10.1729
955
root 23.1134 14.2728 -13.8601 12.7779 -57.6316 7.09476
lowerback 37.9528 -0.524682 6.42887
upperback 19.515 -0.32032 2.52768
thorax 2.95247 -0.411366 -0.600475
lowerneck 4.62821 -1.50726 1.39781
upperneck -21.9804 -1.89981 1.54311
head -7.49821 -1.33628 0.439385
rclavicle 2.70347e-014 2.22639e-014
rhumerus 5.86549 5.82576 -71.7697
rradius 73.0334
rwrist -5.72415
rhand -28.9849 -10.7167
rfingers 7.12502
rthumb -2.33712 -40.6836
lclavicle 2.70347e-014 2.22639e-014
lhumerus -19.2568 -8.4607 70.3515
lradius 70.0065
lwrist 28.5955
lhand -14.2574 10.5473
lfingers 7.12502
lthumb 11.8809 40.1902
rfemur -65.3102 -7.2302 21.4936
rtibia 77.6512
rfoot -30.525 -19.7668
rtoes -4.10696
lfemur -62.1898 12.26 -27.5951
ltibia 78.3882
lfoot -20.1603 4.8473
ltoes -9.36514
956
root 23.0689 14.2862 -13.8636 12.727 -57.4758 7.16665
lowerback 37.8795 -0.580829 6.47794
upperback 19.451 -0.359981 2.53458
thorax 2.90326 -0.424565 -0.607269
lowerneck 4.61777 -1.4783 1.3922
upperneck -21.9913 -1.86425 1.51959
head -7.50012 -1.31629 0.429805
rclavicle -1.59028e-015 -8.0309e-014
rhumerus 5.70406 5.82321 -71.729
rradius 72.9612
rwrist -5.76316
rhand -29.0019 -10.7047
rfingers 7.12502
rthumb -2.35354 -40.6714
lclavicle -1.59028e-015 -8.0309e-014
lhumerus -19.2584 -8.43085 70.2761
lradius 70.1941
lwrist 28.7442
lhand -14.2232 10.5696
lfingers 7.12502
lthumb 11.9139 40.2106
rfemur -65.0598 -7.27032 21.5283
rtibia 77.561
rfoot -30.6891 -19.7927
rtoes -4.06814
lfemur -62.5267 12.4699 -27.7565
ltibia 78.7088
lfoot -19.7377 4.87746
ltoes -8.61923
957
root 23.0256 14.2984 -13.8656 12.7082 -57.3102 7.22413
lowerback 37.7837 -0.640525 6.53214
upperback 19.3872 -0.403497 2.54116
thorax 2.86127 -0.438784 -0.616316
lowerneck 4.60663 -1.4532 1.3781
upperneck -21.9921 -1.83406 1.50126
head -7.49836 -1.29847 0.423647
rclavicle -1.59028e-014 6.40087e-014
rhumerus 5.5495 5.81575 -71.684
rradius 72.8869
rwrist -5.78124
rhand -29.0186 -10.6837
rfingers 7.12502
rthumb -2.3697 -40.6503
lclavicle -1.59028e-014 6.40087e-014
lhumerus -19.2439 -8.3876 70.1959
lradius 70.3788
lwrist 28.8976
lhand -14.2285 10.5793
lfingers 7.12502
lthumb 11.9088 40.2206
rfemur -64.8434 -7.33263 21.5744
rtibia 77.4836
rfoot -30.8806 -19.7833
rtoes -3.95295
lfemur -62.8996 12.6456 -27.9416
ltibia 78.9539
lfoot -19.4337 4.8711
ltoes -8.05001
958
root 22.9832 14.3092 -13.8663 12.7193 -57.1358 7.26528
lowerback 37.6733 -0.70227 6.5893
upperback 19.3237 -0.44943 2.54809
thorax 2.82419 -0.45372 -0.626131
lowerneck 4.59522 -1.43053 1.35877
upperneck -21.982 -1.80668 1.48862
head -7.49286 -1.28186 0.420329
rclavicle -4.45278e-014 -3.4191e-014
rhumerus 5.40476 5.79781 -71.6395
rradius 72.8083
rwrist -5.77679
rhand -29.0197 -10.6624
rfingers 7.12502
rthumb -2.37078 -40.629
lclavicle -4.45278e-014 -3.4191e-014
lhumerus -19.2158 -8.33369 70.1102
lradius 70.5643
lwrist 29.0402
lhand -14.2622 10.5749
lfingers 7.12502
lthumb 11.8763 40.2181
rfemur -64.6581 -7.40192 21.6266
rtibia 77.4219
rfoot -31.0897 -19.7639
rtoes -3.80313
lfemur -63.3083 12.7821 -28.1435
ltibia 79.1045
lfoot -19.257 4.7491
ltoes -7.66435
